<mxfile host="65bd71144e">
    <diagram id="HZpWqSQCwBJgefXwMGEs" name="Страница 1">
        <mxGraphModel dx="1469" dy="432" grid="1" gridSize="10" guides="1" tooltips="1" connect="1" arrows="1" fold="1" page="1" pageScale="1" pageWidth="827" pageHeight="1169" math="0" shadow="0">
            <root>
                <mxCell id="0"/>
                <mxCell id="1" parent="0"/>
                <mxCell id="2" value="Написать программу которая из имеющегося массива строк&amp;nbsp;&lt;br&gt;формирует массив из строк длина которых равна или меньше 3 символа.&amp;nbsp;&lt;br&gt;Первоначальный массив можно ввести с клавиатуры либо задать изначально в коде.&amp;nbsp;&amp;nbsp;" style="text;html=1;align=center;verticalAlign=middle;resizable=0;points=[];autosize=1;strokeColor=none;fillColor=none;" vertex="1" parent="1">
                    <mxGeometry x="-440" y="10" width="510" height="50" as="geometry"/>
                </mxCell>
                <mxCell id="11" value="" style="edgeStyle=none;html=1;" edge="1" parent="1" source="3" target="10">
                    <mxGeometry relative="1" as="geometry"/>
                </mxCell>
                <mxCell id="3" value="Start" style="ellipse;whiteSpace=wrap;html=1;" vertex="1" parent="1">
                    <mxGeometry x="-620" y="20" width="120" height="60" as="geometry"/>
                </mxCell>
                <mxCell id="13" value="" style="edgeStyle=none;html=1;" edge="1" parent="1" source="10" target="12">
                    <mxGeometry relative="1" as="geometry"/>
                </mxCell>
                <mxCell id="10" value="array= [&quot;hello&quot;,&quot;2&quot;,&quot;world&quot;,&quot;:-)&quot;,&lt;br&gt;array2=new []&lt;br&gt;count++;" style="whiteSpace=wrap;html=1;" vertex="1" parent="1">
                    <mxGeometry x="-680" y="160" width="240" height="90" as="geometry"/>
                </mxCell>
                <mxCell id="15" value="" style="edgeStyle=none;html=1;" edge="1" parent="1" source="12" target="14">
                    <mxGeometry relative="1" as="geometry"/>
                </mxCell>
                <mxCell id="18" value="Yes" style="edgeLabel;html=1;align=center;verticalAlign=middle;resizable=0;points=[];" vertex="1" connectable="0" parent="15">
                    <mxGeometry x="0.0154" y="3" relative="1" as="geometry">
                        <mxPoint as="offset"/>
                    </mxGeometry>
                </mxCell>
                <mxCell id="19" style="edgeStyle=none;html=1;exitX=0;exitY=0.5;exitDx=0;exitDy=0;" edge="1" parent="1" source="12">
                    <mxGeometry relative="1" as="geometry">
                        <mxPoint x="-560" y="270" as="targetPoint"/>
                        <Array as="points">
                            <mxPoint x="-720" y="360"/>
                            <mxPoint x="-720" y="270"/>
                        </Array>
                    </mxGeometry>
                </mxCell>
                <mxCell id="20" value="No" style="edgeLabel;html=1;align=center;verticalAlign=middle;resizable=0;points=[];" vertex="1" connectable="0" parent="19">
                    <mxGeometry x="-0.33" y="2" relative="1" as="geometry">
                        <mxPoint as="offset"/>
                    </mxGeometry>
                </mxCell>
                <mxCell id="12" value="for(i=0;i&amp;lt;array.Lenght;i++)&lt;br&gt;if (array[i]&amp;lt;=3)" style="rhombus;whiteSpace=wrap;html=1;" vertex="1" parent="1">
                    <mxGeometry x="-670" y="290" width="220" height="140" as="geometry"/>
                </mxCell>
                <mxCell id="17" value="" style="edgeStyle=none;html=1;" edge="1" parent="1" source="14" target="16">
                    <mxGeometry relative="1" as="geometry"/>
                </mxCell>
                <mxCell id="14" value="array2[count] = array[i];&lt;br&gt;count++;" style="whiteSpace=wrap;html=1;" vertex="1" parent="1">
                    <mxGeometry x="-650" y="527.5" width="180" height="72.5" as="geometry"/>
                </mxCell>
                <mxCell id="16" value="End&lt;br&gt;" style="ellipse;whiteSpace=wrap;html=1;" vertex="1" parent="1">
                    <mxGeometry x="-620" y="686.25" width="120" height="60" as="geometry"/>
                </mxCell>
            </root>
        </mxGraphModel>
    </diagram>
</mxfile>